<svg width="81" height="80" viewBox="0 0 81 80" fill="none" xmlns="http://www.w3.org/2000/svg">
<rect x="0.5" width="80" height="80" rx="15" fill="#E85189"/>
<path fill-rule="evenodd" clip-rule="evenodd" d="M51.024 53.3772L59.138 49.053L62.3838 56.0798C62.3838 56.0798 52.2974 62.6971 48.3193 64.1876C44.3413 65.6782 39.1576 65.8414 35.3371 58.2418C31.6938 48.6859 28.3049 38.7828 28.3049 38.7828L21.2719 40.9451L18.568 33.9183L25.6002 31.2157L22.8955 23.1078L33.7142 15L36.96 26.8914L49.9422 22.5675L52.6469 30.6754L39.6643 34.9992L45.0751 49.5932C45.0751 49.5932 46.2877 55.7426 51.0256 53.3772H51.024ZM59.1396 46.8906L56.4349 36.0802L63.4671 38.7828L59.1396 46.8906ZM60.7624 49.0526L68.8764 41.4854L70.1943 49.2811L60.7624 49.0526Z" fill="white"/>
<path fill-rule="evenodd" clip-rule="evenodd" d="M23.4836 15.6784C24.2376 16.8299 25.481 17.782 25.8305 19.1329C26.185 21.1517 27.2186 23.3749 26.3049 25.3987C26.4646 25.6779 26.2649 25.9969 25.9853 26.1913C26.3049 27.3428 25.0715 27.9808 24.4873 28.7335C22.8994 28.8133 22.1005 27.1035 20.952 26.1913C20.7523 25.638 20.1931 25.1943 19.7986 24.7258C19.479 23.8933 19.0795 22.9811 19.1594 22.029C19.0396 21.5305 19.3592 21.1517 19.2793 20.5984C18.5253 19.6014 19.1594 18.4948 19.0396 17.463C19.9184 16.7502 20.1132 14.7264 21.5862 15.2797C22.2466 15.1565 22.929 15.2999 23.4836 15.6784Z" fill="#004098"/>
<path fill-rule="evenodd" clip-rule="evenodd" d="M35.3277 20.3342C35.7272 20.3342 36.2415 20.0601 36.4412 20.5735C37.5547 22.6771 38.6683 25.972 36.8757 28.1104C35.9219 29.0625 34.8134 29.9398 33.5002 29.5809C32.0281 29.8493 30.5125 29.7535 29.0861 29.3018C28.412 29.8002 27.8178 29.1024 27.0588 29.2619C26.5595 29.0625 25.9453 28.7086 25.7905 28.2301C26.9625 25.8799 27.5354 23.2774 27.4583 20.6532C28.6916 18.7889 30.9936 19.9803 32.7462 19.6214L35.3277 20.3342Z" fill="#FFE100"/>
<path fill-rule="evenodd" clip-rule="evenodd" d="M21.9357 28.23C22.5699 28.7285 23.6434 28.5491 23.958 29.5012C23.2839 29.8999 23.4587 30.9318 22.6498 31.3655C22.6498 31.8041 22.1504 31.7642 21.9357 31.9985C21.2966 33.0702 20.3429 34.3812 19.1095 34.8598C18.6102 36.2057 17.242 36.3552 16.0486 36.5645C14.6205 36.2455 13.1076 35.772 12.1539 34.461C11.6795 33.3494 10.9654 32.3574 11.0054 31.0115C10.6858 30.5131 10.8856 29.8202 10.8057 29.2619C12.4734 28.4693 13.3473 26.6449 13.9465 25.0548C14.6605 24.3419 15.4145 23.6291 16.528 23.988C18.7949 24.7806 19.8685 27.0038 21.9357 28.23Z" fill="#E60012"/>
<path fill-rule="evenodd" clip-rule="evenodd" d="M27.0189 29.5012C27.3385 29.9996 27.8977 30.4532 27.6581 31.2458C27.3784 31.6047 26.7842 31.0115 26.4647 31.5648C26.0652 31.6446 25.466 32.2777 24.9916 31.7244C24.4374 31.6047 23.6834 32.2777 23.4937 31.3655C23.6934 31.1262 23.4138 30.7723 23.6135 30.4533C24.0307 29.6743 24.7257 29.0801 25.5609 28.7883C26.0652 28.8681 26.4647 29.3815 27.0189 29.5012Z" fill="#E4007F"/>
<path fill-rule="evenodd" clip-rule="evenodd" d="M33.3853 30.3735C35.093 31.4452 36.1266 33.3095 37.8393 34.461C38.0341 34.5806 37.9142 34.8597 37.9542 35.0541C36.9206 36.4848 35.0531 36.0062 33.5052 35.9265C32.0321 35.7321 30.8038 34.9744 29.5105 34.3413C29.1111 33.8678 29.0711 33.2297 28.5967 32.8459C28.3571 32.8858 28.0974 32.8459 28.0974 32.5668C28.4969 31.9736 27.5432 30.9417 28.7765 30.7423C28.9712 30.1043 29.8101 30.3834 30.2445 29.9498C31.5128 29.6606 32.2269 30.4931 33.3853 30.3735Z" fill="#920783"/>
<path fill-rule="evenodd" clip-rule="evenodd" d="M28.6916 33.9077L29.0861 35.5726C28.5318 36.0461 28.9662 36.7639 28.372 37.1577C28.0525 37.4768 27.5382 37.1577 27.4183 37.6562C27.0189 37.1577 26.2649 36.9384 26.0651 36.2655C25.8704 35.114 25.9103 34.0423 25.8304 32.9706C26.0252 32.6964 26.1051 32.2976 26.4246 32.178C27.4583 32.2378 28.0924 33.2298 28.6916 33.9077Z" fill="#F39800"/>
<path fill-rule="evenodd" clip-rule="evenodd" d="M24.8368 32.796C24.8768 33.1898 25.9104 33.5487 25.3361 34.0622C25.3361 34.8996 25.416 35.9265 24.8618 36.6842C24.1427 38.4687 22.3651 39.2613 20.7673 39.8594C20.0373 40.0255 19.288 40.0909 18.5403 40.0538C18.3453 39.9633 18.1917 39.8026 18.1103 39.6039C18.0288 39.4052 18.0254 39.1832 18.1008 38.9821C19.5988 37.3571 19.5339 35.2934 21.1218 33.6684C21.6211 32.8758 22.6198 32.8758 23.3089 32.3175C23.7633 32.5967 24.5971 31.9237 24.8368 32.796Z" fill="#00A73C"/>
</svg>
