<svg width="251" height="41" viewBox="0 0 251 41" fill="none" xmlns="http://www.w3.org/2000/svg">
<rect x="0.5" y="0.296265" width="250" height="40" rx="5" fill="#06C755"/>
<g clip-path="url(#clip0_1337_3515)">
<path d="M26.6356 18.5156C26.7062 18.5132 26.7766 18.525 26.8425 18.5503C26.9084 18.5757 26.9686 18.614 27.0194 18.6631C27.0702 18.7122 27.1106 18.771 27.1382 18.836C27.1658 18.901 27.18 18.9709 27.18 19.0416C27.18 19.1122 27.1658 19.1821 27.1382 19.2471C27.1106 19.3121 27.0702 19.3709 27.0194 19.42C26.9686 19.4691 26.9084 19.5075 26.8425 19.5328C26.7766 19.5581 26.7062 19.5699 26.6356 19.5675H25.1737V20.505H26.6356C26.7066 20.5015 26.7776 20.5125 26.8443 20.5373C26.9109 20.5621 26.9718 20.6002 27.0233 20.6492C27.0748 20.6982 27.1158 20.7572 27.1438 20.8226C27.1718 20.8879 27.1862 20.9583 27.1862 21.0294C27.1862 21.1005 27.1718 21.1708 27.1438 21.2362C27.1158 21.3015 27.0748 21.3605 27.0233 21.4095C26.9718 21.4586 26.9109 21.4966 26.8443 21.5214C26.7776 21.5462 26.7066 21.5572 26.6356 21.5537H24.65C24.5112 21.5532 24.3782 21.4978 24.2802 21.3995C24.1822 21.3013 24.127 21.1682 24.1269 21.0294V17.0544C24.1269 16.765 24.3612 16.5275 24.65 16.5275H26.6394C26.7743 16.5345 26.9014 16.5931 26.9944 16.6912C27.0873 16.7894 27.1389 16.9195 27.1385 17.0546C27.1381 17.1897 27.0857 17.3195 26.9922 17.4171C26.8987 17.5147 26.7712 17.5726 26.6362 17.5787H25.1744V18.5162L26.6356 18.5156ZM23.4269 21.0287C23.4257 21.1679 23.3697 21.3011 23.2709 21.3991C23.1721 21.4972 23.0386 21.5523 22.8994 21.5525C22.817 21.5533 22.7355 21.5349 22.6614 21.4988C22.5873 21.4627 22.5226 21.4098 22.4725 21.3444L20.4381 18.5775V21.0281C20.4381 21.1672 20.3829 21.3006 20.2845 21.3989C20.1862 21.4972 20.0528 21.5525 19.9137 21.5525C19.7747 21.5525 19.6413 21.4972 19.543 21.3989C19.4446 21.3006 19.3894 21.1672 19.3894 21.0281V17.0531C19.3894 16.8287 19.5363 16.6275 19.7475 16.5556C19.7997 16.5372 19.8547 16.5281 19.91 16.5287C20.0725 16.5287 20.2225 16.6169 20.3231 16.7406L22.3737 19.5137V17.0531C22.3737 16.7637 22.6081 16.5262 22.8981 16.5262C23.1881 16.5262 23.4256 16.7637 23.4256 17.0531L23.4269 21.0287ZM18.6419 21.0287C18.6412 21.1682 18.5853 21.3016 18.4865 21.3999C18.3876 21.4982 18.2538 21.5533 18.1144 21.5531C17.976 21.552 17.8437 21.4962 17.7462 21.398C17.6487 21.2998 17.5939 21.1671 17.5938 21.0287V17.0537C17.5938 16.7644 17.8281 16.5269 18.1181 16.5269C18.4075 16.5269 18.6425 16.7644 18.6425 17.0537L18.6419 21.0287ZM16.5875 21.5531H14.5981C14.4589 21.5528 14.3254 21.4975 14.2266 21.3994C14.1278 21.3012 14.0718 21.168 14.0706 21.0287V17.0537C14.0706 16.7644 14.3081 16.5269 14.5981 16.5269C14.8881 16.5269 15.1225 16.7644 15.1225 17.0537V20.5044H16.5875C16.7266 20.5044 16.8599 20.5596 16.9583 20.658C17.0566 20.7563 17.1119 20.8897 17.1119 21.0287C17.1119 21.1678 17.0566 21.3012 16.9583 21.3995C16.8599 21.4979 16.7266 21.5531 16.5875 21.5531ZM30.5 18.8894C30.5 14.4137 26.0106 10.7712 20.5 10.7712C14.9894 10.7712 10.5 14.4137 10.5 18.8894C10.5 22.9 14.0581 26.2594 18.8625 26.8975C19.1881 26.9656 19.6306 27.1125 19.745 27.3894C19.8456 27.6394 19.81 28.0269 19.7775 28.2912L19.6406 29.1406C19.6012 29.3912 19.4388 30.1275 20.5131 29.6781C21.5906 29.2287 26.2781 26.28 28.3775 23.8637C29.8131 22.2919 30.5 20.6769 30.5 18.8894Z" fill="white"/>
</g>
<line x1="40.75" y1="5.29626" x2="40.75" y2="35.2963" stroke="black" stroke-opacity="0.08" stroke-width="0.5"/>
<path d="M118.694 15.2503H121.284V16.1743H118.694V15.2503ZM115.446 15.9363H118.176V16.8323H115.446V15.9363ZM118.82 17.9383H121.242V18.8343H118.82V17.9383ZM118.736 20.5703H121.116V21.4663H118.736V20.5703ZM111.82 17.8963H114.2V18.7923H111.82V17.8963ZM111.89 20.5143H114.242V21.4103H111.89V20.5143ZM120.71 15.2503H121.69C121.662 17.8963 121.578 21.5083 121.438 23.5383H120.458C120.598 21.4803 120.724 17.8403 120.71 15.2503ZM113.878 14.6203L114.382 15.4743C113.528 15.8383 112.436 16.1883 111.54 16.4543C111.498 16.2443 111.372 15.9223 111.26 15.6983C112.142 15.3903 113.192 14.9703 113.878 14.6203ZM114.942 14.6343H115.852V18.3303H117.7V19.1843H114.942V14.6343ZM110.112 23.1463H122.824V24.1263H110.112V23.1463ZM117.812 25.0223L118.386 24.2943C119.884 24.9943 121.508 25.8903 122.488 26.5623L121.788 27.3603C120.836 26.6743 119.282 25.7363 117.812 25.0223ZM114.228 24.3503L115.124 24.9803C113.976 25.8623 112.282 26.8003 110.91 27.4023C110.77 27.1783 110.504 26.8283 110.294 26.6043C111.638 26.0583 113.332 25.1063 114.228 24.3503ZM111.26 15.6983L112.24 15.9783L112.492 23.4823H111.54L111.26 15.6983ZM115.39 19.8003L116.216 19.9403C116.062 20.9203 115.768 21.9003 115.334 22.5583C115.194 22.4323 114.816 22.2083 114.62 22.1103C115.054 21.5083 115.264 20.6543 115.39 19.8003ZM117.182 18.3443H118.078V22.0683C118.078 22.5023 117.994 22.6983 117.686 22.8243C117.378 22.9503 116.888 22.9503 116.202 22.9503C116.16 22.7263 116.048 22.4463 115.936 22.2363C116.44 22.2503 116.86 22.2503 117 22.2363C117.14 22.2363 117.182 22.1943 117.182 22.0683V18.3443ZM124.868 26.2963V16.0343H126.17V25.2043H130.65V26.2963H124.868ZM132.469 26.2963V16.0343H133.771V26.2963H132.469ZM136.571 26.2963V16.0343H137.901L141.639 22.5023L142.745 24.6303H142.815C142.731 23.5943 142.633 22.4323 142.633 21.3683V16.0343H143.879V26.2963H142.535L138.811 19.8283L137.705 17.7143H137.635C137.705 18.7503 137.803 19.8283 137.803 20.9203V26.2963H136.571ZM146.688 26.2963V16.0343H152.596V17.1263H147.99V20.3463H151.868V21.4523H147.99V25.2043H152.75V26.2963H146.688ZM157.76 15.7963H166.566V16.6783H157.76V15.7963ZM157.76 23.3003H166.762V24.1963H157.76V23.3003ZM161.554 14.5503H162.59V25.8483H161.554V14.5503ZM159.398 20.3463V21.4803H164.816V20.3463H159.398ZM159.398 18.4983V19.6043H164.816V18.4983H159.398ZM158.432 17.7143H165.838V22.2643H158.432V17.7143ZM154.694 14.9983L155.492 14.5503C156.094 15.2363 156.822 16.1463 157.172 16.7203L156.332 17.2663C155.996 16.6783 155.268 15.6983 154.694 14.9983ZM154.176 17.7703H157.13V18.6523H154.176V17.7703ZM156.668 24.1963C157.536 26.0303 159.356 26.2823 162.156 26.2823C163.64 26.2823 165.684 26.2263 167.126 26.1003C166.972 26.3243 166.846 26.8003 166.79 27.0803C165.46 27.1643 163.696 27.1923 162.156 27.1923C158.866 27.1923 157.032 26.8283 155.968 24.5183L156.668 24.1963ZM156.668 21.2703H156.976L157.158 21.2423L157.634 21.4383C157.186 24.3783 156.108 26.3663 154.652 27.4443C154.512 27.2343 154.162 26.8703 153.952 26.7163C155.338 25.7643 156.318 23.9723 156.668 21.4523V21.2703ZM154.386 22.3203V21.5223L154.89 21.2703H157.102V22.1243H155.212C154.848 22.1243 154.484 22.2083 154.386 22.3203ZM154.386 22.3063C154.316 22.0683 154.106 21.5783 153.994 21.3683C154.204 21.3123 154.428 21.2143 154.666 20.9483C155.086 20.5283 156.374 18.6103 156.836 17.8683V17.8263L157.144 17.7003L157.83 18.0083C157.186 18.9603 155.954 20.7663 155.17 21.6483C155.17 21.6483 154.386 22.0403 154.386 22.3063ZM168.498 23.6923H174.882V24.4903H168.498V23.6923ZM168.12 16.9443H175.106V17.7563H168.12V16.9443ZM171.158 15.6703H172.124V25.9743H171.158V15.6703ZM168.106 26.0023C169.814 25.8483 172.432 25.5963 174.938 25.3303L174.952 26.1563C172.572 26.4363 170.038 26.7303 168.26 26.9123L168.106 26.0023ZM169.408 21.0743V22.1103H173.944V21.0743H169.408ZM169.408 19.3663V20.3743H173.944V19.3663H169.408ZM168.526 18.6383H174.84V22.8383H168.526V18.6383ZM174.336 14.6763L174.868 15.4883C173.216 15.8523 170.612 16.0903 168.512 16.1603C168.47 15.9363 168.372 15.5863 168.26 15.3763C170.346 15.2643 172.894 15.0123 174.336 14.6763ZM175.008 17.8123H180.062V18.7923H175.008V17.8123ZM179.656 17.8123H180.664C180.664 17.8123 180.65 18.2043 180.65 18.3443C180.496 24.2523 180.356 26.2123 179.894 26.8143C179.642 27.1783 179.362 27.3043 178.942 27.3463C178.55 27.3883 177.878 27.3883 177.234 27.3463C177.206 27.0523 177.094 26.6183 176.926 26.3383C177.612 26.3943 178.228 26.4083 178.508 26.4083C178.732 26.4083 178.872 26.3663 178.998 26.1843C179.348 25.7503 179.502 23.7343 179.656 18.0643V17.8123ZM176.702 14.7183H177.71C177.696 20.2903 177.682 24.9943 174.336 27.5003C174.168 27.2483 173.804 26.9123 173.552 26.7443C176.758 24.4483 176.688 20.0103 176.702 14.7183Z" fill="white"/>
<defs>
<clipPath id="clip0_1337_3515">
<rect width="20" height="20" fill="white" transform="translate(10.5 10.2963)"/>
</clipPath>
</defs>
</svg>
