<svg width="40" height="35" viewBox="0 0 40 35" fill="none" xmlns="http://www.w3.org/2000/svg">
<path fill-rule="evenodd" clip-rule="evenodd" d="M27.0882 26.5099L32.5533 23.5974L34.7394 28.3302C34.7394 28.3302 27.9459 32.7872 25.2666 33.7911C22.5872 34.795 19.0959 34.9049 16.5226 29.7863C14.0688 23.3502 11.7862 16.6802 11.7862 16.6802L7.0493 18.1366L5.22815 13.4038L9.96455 11.5835L8.14288 6.1226L15.4296 0.661743L17.6157 8.67095L26.3596 5.7587L28.1813 11.2196L19.4371 14.1318L23.0815 23.9613C23.0815 23.9613 23.8982 28.1031 27.0893 26.5099H27.0882ZM32.5543 22.141L30.7326 14.8599L35.469 16.6802L32.5543 22.141ZM33.6474 23.5972L39.1124 18.5005L40 23.7511L33.6474 23.5972Z" fill="#E85189"/>
<path fill-rule="evenodd" clip-rule="evenodd" d="M8.539 1.11868C9.04683 1.89424 9.88425 2.5355 10.1197 3.44534C10.3585 4.80508 11.0546 6.30248 10.4392 7.66557C10.5468 7.85358 10.4123 8.06845 10.2239 8.19939C10.4392 8.97495 9.60848 9.40469 9.21499 9.91166C8.14551 9.96537 7.60741 8.81379 6.83389 8.19939C6.69937 7.82672 6.32269 7.52792 6.057 7.21232C5.84176 6.65164 5.57271 6.03724 5.62652 5.39598C5.54581 5.06024 5.76105 4.80508 5.70724 4.43241C5.19941 3.76094 5.62653 3.0156 5.54581 2.32062C6.13772 1.84052 6.26888 0.47743 7.26101 0.850099C7.70583 0.767138 8.16544 0.86373 8.539 1.11868Z" fill="#004098"/>
<path fill-rule="evenodd" clip-rule="evenodd" d="M16.5164 4.25445C16.7854 4.25445 17.1318 4.0698 17.2663 4.41561C18.0163 5.83242 18.7663 8.05165 17.5589 9.49196C16.9166 10.1332 16.17 10.7241 15.2855 10.4824C14.2939 10.6632 13.2732 10.5986 12.3124 10.2944C11.8584 10.6301 11.4582 10.1601 10.947 10.2675C10.6107 10.1332 10.197 9.89484 10.0928 9.57254C10.8822 7.98966 11.268 6.23676 11.2161 4.46933C12.0468 3.21367 13.5972 4.01608 14.7776 3.77435L16.5164 4.25445Z" fill="#FFE100"/>
<path fill-rule="evenodd" clip-rule="evenodd" d="M7.49643 9.57256C7.92355 9.90829 8.64662 9.78744 8.8585 10.4287C8.40448 10.6973 8.52219 11.3923 7.97736 11.6844C7.97736 11.9798 7.64105 11.9529 7.49643 12.1107C7.06595 12.8326 6.42359 13.7156 5.5929 14.0379C5.25658 14.9444 4.33508 15.0451 3.53129 15.1861C2.56944 14.9712 1.5504 14.6523 0.908046 13.7693C0.588548 13.0206 0.107618 12.3525 0.134523 11.446C-0.0807173 11.1102 0.0538102 10.6436 0 10.2675C1.12329 9.73371 1.71184 8.50491 2.11542 7.43391C2.59634 6.9538 3.10418 6.4737 3.85416 6.71544C5.38102 7.24926 6.10409 8.74664 7.49643 9.57256Z" fill="#E60012"/>
<path fill-rule="evenodd" clip-rule="evenodd" d="M10.9201 10.4287C11.1353 10.7645 11.512 11.07 11.3506 11.6038C11.1622 11.8455 10.762 11.446 10.5468 11.8187C10.2777 11.8724 9.87415 12.2988 9.55466 11.9261C9.18135 11.8455 8.67351 12.2988 8.54572 11.6844C8.68024 11.5232 8.4919 11.2849 8.62643 11.07C8.90741 10.5453 9.37552 10.1451 9.93805 9.94861C10.2777 10.0023 10.5468 10.3481 10.9201 10.4287Z" fill="#E4007F"/>
<path fill-rule="evenodd" clip-rule="evenodd" d="M15.2081 11.0162C16.3583 11.7381 17.0545 12.9937 18.208 13.7693C18.3392 13.8499 18.2585 14.0379 18.2854 14.1688C17.5892 15.1324 16.3314 14.8101 15.2888 14.7564C14.2967 14.6254 13.4694 14.1151 12.5983 13.6887C12.3293 13.3698 12.3024 12.94 11.9829 12.6815C11.8214 12.7084 11.6465 12.6815 11.6465 12.4935C11.9156 12.094 11.2732 11.399 12.1039 11.2647C12.2351 10.8349 12.8001 11.023 13.0927 10.7309C13.9469 10.5361 14.4279 11.0968 15.2081 11.0162Z" fill="#920783"/>
<path fill-rule="evenodd" clip-rule="evenodd" d="M12.0467 13.3966L12.3124 14.518C11.9391 14.837 12.2317 15.3204 11.8315 15.5856C11.6162 15.8005 11.2698 15.5856 11.1891 15.9214C10.9201 15.5856 10.4122 15.4379 10.2777 14.9847C10.1465 14.2091 10.1734 13.4873 10.1196 12.7655C10.2508 12.5808 10.3046 12.3122 10.5198 12.2316C11.216 12.2719 11.6431 12.94 12.0467 13.3966Z" fill="#F39800"/>
<path fill-rule="evenodd" clip-rule="evenodd" d="M9.4504 12.6479C9.47731 12.9132 10.1735 13.1549 9.78671 13.5007C9.78671 14.0647 9.84052 14.7564 9.46721 15.2667C8.98292 16.4686 7.78565 17.0025 6.70944 17.4053C6.2178 17.5172 5.71312 17.5612 5.20949 17.5363C5.07817 17.4753 4.97474 17.367 4.91987 17.2332C4.86501 17.0994 4.86274 16.9498 4.91353 16.8144C5.92247 15.7199 5.87875 14.33 6.94823 13.2355C7.28454 12.7016 7.95717 12.7016 8.42128 12.3256C8.72733 12.5136 9.28897 12.0604 9.4504 12.6479Z" fill="#00A73C"/>
</svg>
