<svg width="21" height="20" viewBox="0 0 21 20" fill="none" xmlns="http://www.w3.org/2000/svg">
<path d="M15.75 4.75828C15.6729 4.68102 15.5813 4.61973 15.4805 4.57792C15.3797 4.5361 15.2716 4.51457 15.1625 4.51457C15.0534 4.51457 14.9453 4.5361 14.8445 4.57792C14.7437 4.61973 14.6521 4.68102 14.575 4.75828L10.5 8.82494L6.425 4.74994C6.34785 4.67279 6.25626 4.61159 6.15546 4.56984C6.05465 4.52808 5.94661 4.50659 5.8375 4.50659C5.72839 4.50659 5.62035 4.52808 5.51955 4.56984C5.41875 4.61159 5.32715 4.67279 5.25 4.74994C5.17285 4.82709 5.11165 4.91869 5.0699 5.01949C5.02814 5.12029 5.00665 5.22833 5.00665 5.33744C5.00665 5.44655 5.02814 5.55459 5.0699 5.65539C5.11165 5.7562 5.17285 5.84779 5.25 5.92494L9.325 9.99994L5.25 14.0749C5.17285 14.1521 5.11165 14.2437 5.0699 14.3445C5.02814 14.4453 5.00665 14.5533 5.00665 14.6624C5.00665 14.7715 5.02814 14.8796 5.0699 14.9804C5.11165 15.0812 5.17285 15.1728 5.25 15.2499C5.32715 15.3271 5.41875 15.3883 5.51955 15.43C5.62035 15.4718 5.72839 15.4933 5.8375 15.4933C5.94661 15.4933 6.05465 15.4718 6.15546 15.43C6.25626 15.3883 6.34785 15.3271 6.425 15.2499L10.5 11.1749L14.575 15.2499C14.6522 15.3271 14.7437 15.3883 14.8445 15.43C14.9454 15.4718 15.0534 15.4933 15.1625 15.4933C15.2716 15.4933 15.3797 15.4718 15.4805 15.43C15.5813 15.3883 15.6728 15.3271 15.75 15.2499C15.8272 15.1728 15.8884 15.0812 15.9301 14.9804C15.9719 14.8796 15.9934 14.7715 15.9934 14.6624C15.9934 14.5533 15.9719 14.4453 15.9301 14.3445C15.8884 14.2437 15.8272 14.1521 15.75 14.0749L11.675 9.99994L15.75 5.92494C16.0667 5.60828 16.0667 5.07494 15.75 4.75828Z" fill="#BDBDBD"/>
</svg>
