<svg width="18" height="18" viewBox="0 0 18 18" fill="none" xmlns="http://www.w3.org/2000/svg">
<path d="M17.7188 9C17.7188 13.8163 13.8149 17.7188 9 17.7188C4.18511 17.7188 0.28125 13.8163 0.28125 9C0.28125 4.18651 4.18511 0.28125 9 0.28125C13.8149 0.28125 17.7188 4.18651 17.7188 9ZM9.23396 3.16406C7.31805 3.16406 6.09609 3.97114 5.13654 5.40555C5.01223 5.59139 5.05382 5.84202 5.23199 5.97713L6.45188 6.90209C6.63486 7.04085 6.89558 7.00784 7.03775 6.82748C7.66579 6.03091 8.09641 5.569 9.05231 5.569C9.77052 5.569 10.6589 6.03123 10.6589 6.72768C10.6589 7.25418 10.2242 7.52456 9.51511 7.92214C8.68809 8.38575 7.59375 8.96277 7.59375 10.4062V10.5469C7.59375 10.7799 7.78264 10.9688 8.01562 10.9688H9.98438C10.2174 10.9688 10.4062 10.7799 10.4062 10.5469V10.5C10.4062 9.49939 13.3308 9.45773 13.3308 6.75C13.3308 4.71087 11.2156 3.16406 9.23396 3.16406V3.16406ZM9 11.8828C8.10826 11.8828 7.38281 12.6083 7.38281 13.5C7.38281 14.3917 8.10826 15.1172 9 15.1172C9.89174 15.1172 10.6172 14.3917 10.6172 13.5C10.6172 12.6083 9.89174 11.8828 9 11.8828Z" fill="#E85189"/>
</svg>
