<svg width="21" height="18" viewBox="0 0 21 18" fill="none" xmlns="http://www.w3.org/2000/svg">
<g clip-path="url(#clip0_405_2102)">
<path d="M16.875 14.625V15.1875C16.875 16.1195 16.1195 16.875 15.1875 16.875H1.6875C0.755508 16.875 0 16.1195 0 15.1875V6.1875C0 5.25551 0.755508 4.5 1.6875 4.5H2.25V11.8125C2.25 13.3633 3.51169 14.625 5.0625 14.625H16.875ZM20.25 11.8125V2.8125C20.25 1.88051 19.4945 1.125 18.5625 1.125H5.0625C4.13051 1.125 3.375 1.88051 3.375 2.8125V11.8125C3.375 12.7445 4.13051 13.5 5.0625 13.5H18.5625C19.4945 13.5 20.25 12.7445 20.25 11.8125ZM9 4.5C9 5.43199 8.24449 6.1875 7.3125 6.1875C6.38051 6.1875 5.625 5.43199 5.625 4.5C5.625 3.56801 6.38051 2.8125 7.3125 2.8125C8.24449 2.8125 9 3.56801 9 4.5ZM5.625 9.5625L7.5767 7.6108C7.74144 7.44606 8.00856 7.44606 8.17334 7.6108L9.5625 9L14.3267 4.2358C14.4914 4.07106 14.7586 4.07106 14.9233 4.2358L18 7.3125V11.25H5.625V9.5625Z" fill="#E85189"/>
</g>
<defs>
<clipPath id="clip0_405_2102">
<rect width="20.25" height="18" fill="white"/>
</clipPath>
</defs>
</svg>
