<svg width="36" height="36" viewBox="0 0 36 36" fill="none" xmlns="http://www.w3.org/2000/svg">
<path d="M35.4375 18C35.4375 27.6326 27.6298 35.4375 18 35.4375C8.37021 35.4375 0.5625 27.6326 0.5625 18C0.5625 8.37302 8.37021 0.5625 18 0.5625C27.6298 0.5625 35.4375 8.37302 35.4375 18ZM18 21.5156C16.2137 21.5156 14.7656 22.9637 14.7656 24.75C14.7656 26.5363 16.2137 27.9844 18 27.9844C19.7863 27.9844 21.2344 26.5363 21.2344 24.75C21.2344 22.9637 19.7863 21.5156 18 21.5156ZM14.9292 9.88974L15.4508 19.4522C15.4752 19.8997 15.8452 20.25 16.2933 20.25H19.7067C20.1548 20.25 20.5248 19.8997 20.5492 19.4522L21.0708 9.88974C21.0971 9.40641 20.7123 9 20.2283 9H15.7717C15.2876 9 14.9029 9.40641 14.9292 9.88974Z" fill="white" fill-opacity="0.5"/>
</svg>
