<svg width="36" height="36" viewBox="0 0 36 36" fill="none" xmlns="http://www.w3.org/2000/svg">
<g clip-path="url(#clip0_319_2444)">
<path d="M14.168 12.2907L18.0844 16.2141C18.3023 16.4321 18.3023 16.7907 18.0844 17.0086L17.2898 17.8032C17.0719 18.0211 16.7133 18.0211 16.4953 17.8032L12.5789 13.8797L9.39374 17.0649L13.3172 20.9883C13.5352 21.2063 13.5352 21.5649 13.3172 21.7829L12.5227 22.5774C12.3047 22.7954 11.9461 22.7954 11.7281 22.5774L7.80468 18.6469L5.94843 20.5032C4.73202 21.7196 4.14843 23.393 4.33124 25.1016L4.83046 29.5735L0.161707 34.2422C-0.0562622 34.4602 -0.0562622 34.8188 0.161707 35.0368L0.956238 35.8313C1.17421 36.0493 1.5328 36.0493 1.75077 35.8313L6.41249 31.1696L10.8844 31.6688C12.5648 31.8516 14.2523 31.2891 15.4828 30.0516L28.2727 17.2618L18.7312 7.72036L14.168 12.2907V12.2907ZM35.8383 5.73052L30.2695 0.161768C30.0516 -0.0562012 29.693 -0.0562012 29.475 0.161768L28.6805 0.956299C28.4625 1.17427 28.4625 1.53286 28.6805 1.75083L30.6703 3.74067L27.4852 6.92583L23.5055 2.94614L22.3102 1.75083C22.0922 1.53286 21.7336 1.53286 21.5156 1.75083L19.132 4.13442C18.9141 4.35239 18.9141 4.71099 19.132 4.92895L20.3273 6.12427L29.8688 15.6797L31.0641 16.875C31.282 17.093 31.6406 17.093 31.8586 16.875L34.2422 14.4844C34.4602 14.2665 34.4602 13.9079 34.2422 13.6899L29.0742 8.52192L32.2594 5.33677L34.2492 7.32661C34.4672 7.54458 34.8258 7.54458 35.0438 7.32661L35.8383 6.53208C36.0563 6.30708 36.0563 5.95552 35.8383 5.73052V5.73052Z" fill="white" fill-opacity="0.5"/>
</g>
<defs>
<clipPath id="clip0_319_2444">
<rect width="36" height="36" fill="white"/>
</clipPath>
</defs>
</svg>
